<svg width="50" height="50" viewBox="0 0 50 50" fill="none" xmlns="http://www.w3.org/2000/svg">
<path d="M14 36C10.6667 36 7.83333 34.8333 5.5 32.5C3.16667 30.1667 2 27.3333 2 24C2 20.6667 3.16667 17.8333 5.5 15.5C7.83333 13.1667 10.6667 12 14 12C16.6 12 18.7917 12.625 20.575 13.875C22.3583 15.125 23.6833 16.7833 24.55 18.85H46V29.15H40.7V36H31.4V29.15H24.55C23.6833 31.2167 22.3583 32.875 20.575 34.125C18.7917 35.375 16.6 36 14 36ZM14 33C16.3667 33 18.3083 32.2167 19.825 30.65C21.3417 29.0833 22.2333 27.5833 22.5 26.15H34.6V33H37.7V26.15H43V21.85H22.5C22.2333 20.4167 21.3417 18.9167 19.825 17.35C18.3083 15.7833 16.3667 15 14 15C11.5 15 9.375 15.875 7.625 17.625C5.875 19.375 5 21.5 5 24C5 26.5 5.875 28.625 7.625 30.375C9.375 32.125 11.5 33 14 33ZM14 27.4C14.9667 27.4 15.775 27.075 16.425 26.425C17.075 25.775 17.4 24.9667 17.4 24C17.4 23.0333 17.075 22.225 16.425 21.575C15.775 20.925 14.9667 20.6 14 20.6C13.0333 20.6 12.225 20.925 11.575 21.575C10.925 22.225 10.6 23.0333 10.6 24C10.6 24.9667 10.925 25.775 11.575 26.425C12.225 27.075 13.0333 27.4 14 27.4Z" fill="#3ACB28"/>
</svg>
