<svg width="51" height="50" viewBox="0 0 51 50" fill="none" xmlns="http://www.w3.org/2000/svg">
<path d="M17.63 45L13.83 38.5L6.27999 36.95L7.12999 29.6L2.32999 24L7.12999 18.45L6.27999 11.1L13.83 9.55L17.63 3L24.33 6.1L31.03 3L34.88 9.55L42.38 11.1L41.53 18.45L46.33 24L41.53 29.6L42.38 36.95L34.88 38.5L31.03 45L24.33 41.9L17.63 45ZM18.98 41.05L24.33 38.8L29.83 41.05L33.18 36.05L39.03 34.55L38.43 28.6L42.48 24L38.43 19.3L39.03 13.35L33.18 11.95L29.73 6.95L24.33 9.2L18.83 6.95L15.48 11.95L9.62999 13.35L10.23 19.3L6.17999 24L10.23 28.6L9.62999 34.65L15.48 36.05L18.98 41.05ZM22.18 30.65L33.53 19.4L31.28 17.35L22.18 26.35L17.43 21.4L15.13 23.65L22.18 30.65Z" fill="#3ACB28"/>
</svg>
